# Blender 4.2.3 LTS
# www.blender.org
mtllib MainFlat.mtl
o Flat
v -2.676188 5.468402 8.257463
v -0.377688 5.468402 8.257463
v -2.676188 5.468402 7.946804
v -0.377688 5.468402 7.946804
v -2.676188 5.468402 6.642074
v -0.377688 5.468402 6.642074
v -0.241468 5.468402 7.946804
v -0.241468 5.468402 6.642074
v 2.872149 5.468402 7.946804
v 2.872149 5.468402 6.642074
v -0.241468 5.468402 6.077076
v 2.872149 5.468402 6.077076
v -0.241468 5.468402 8.281372
v 2.872149 5.468402 8.281372
v -2.676188 5.468402 6.322617
v -0.377688 5.468402 5.882164
v -2.676188 5.468402 4.576313
v -0.377688 5.468402 4.576313
v 2.895345 5.468402 5.882164
v 2.895345 5.468402 4.576313
v 3.035458 5.468402 5.882164
v 3.035458 5.468402 4.576313
v -0.377688 5.468402 4.374551
v 2.895345 5.468402 4.374551
v -0.377688 5.468402 0.127661
v 2.895345 5.468402 0.127661
v 7.471298 6.870244 4.203874
v 7.471979 5.468402 0.127661
v -2.663252 5.468402 4.374551
v -2.663252 5.468402 0.127661
v 8.001758 6.403092 5.548549
v 3.035458 5.468402 8.280063
v -0.377688 5.468402 1.096129
v -0.377688 5.468402 2.474125
v 2.895345 5.468402 2.474125
v 2.895345 5.468402 1.096129
v 7.471282 6.870244 2.633308
v 7.471979 5.468402 1.096129
v -2.663252 5.468402 1.096129
v -2.663252 5.468402 2.474125
v 7.800624 6.870244 2.642326
v 7.799926 5.468402 1.096129
v 9.528105 6.856970 2.445213
v 9.528105 6.856970 1.096129
v 8.209858 6.856969 0.241442
v 9.528105 6.856970 0.241442
v 7.800608 6.870244 4.203319
v 9.528105 6.856970 4.525887
v -2.369721 5.468402 8.257463
v -0.990622 5.468402 8.257463
v -0.990621 5.468402 7.946804
v -2.369721 5.468402 7.946804
v -0.990621 5.468402 6.642074
v -2.369721 5.468402 6.642074
v -0.990621 5.468402 6.322617
v -2.369721 5.468402 6.322617
v -0.990621 5.468402 4.576313
v -2.369721 5.468402 4.576313
v -2.369721 5.468402 8.425851
v -0.990622 5.468402 8.425851
v -2.676188 9.046543 8.257463
v -0.377688 9.046543 8.257463
v -2.676188 9.046543 7.946804
v -0.377688 9.046543 7.946804
v -2.676188 9.046543 6.642074
v -0.377688 9.046543 6.642074
v -0.241468 9.046543 7.946804
v -0.241468 9.046543 6.642074
v 2.872149 9.046543 7.946804
v 2.872149 9.046543 6.642074
v -0.241468 9.046543 6.077076
v 2.872149 9.046543 6.077076
v -0.241468 9.046543 8.281372
v 2.872149 9.046543 8.281372
v -2.676188 9.046543 6.322617
v -0.377688 9.046543 5.882164
v -2.676188 9.046543 4.576313
v -0.377688 9.046543 4.576313
v 2.895345 9.046543 5.882164
v 2.895345 9.046543 4.576313
v 3.035458 9.046543 5.884534
v 3.035458 9.046543 4.576313
v -0.377688 9.046543 4.374551
v 2.895345 9.046543 4.374551
v -0.377688 9.046543 0.127661
v 2.895345 9.046543 0.127661
v 7.471979 9.046543 4.374551
v 7.471979 9.046543 0.127661
v -2.663252 9.046543 4.374551
v -2.663252 9.046543 0.127661
v 8.001758 9.046543 6.322617
v 8.001758 9.046543 4.576313
v 3.035458 9.046543 8.280063
v 8.001758 9.046543 8.280063
v 7.471979 9.046543 2.474125
v 7.471979 9.046543 1.096129
v -2.663252 9.046543 1.096129
v -2.663252 9.046543 2.474125
v 7.799926 9.046543 2.445213
v 7.799926 9.046543 1.096129
v 9.528105 9.046543 2.445213
v 9.528105 9.046543 1.096129
v 7.799926 9.046543 0.241442
v 9.528105 9.046543 0.241442
v 9.528105 9.046543 4.525887
v -2.369721 9.046543 8.257463
v -0.990622 9.046543 8.257463
v -0.990621 9.046543 4.576313
v -2.369721 9.046543 4.576313
v 7.799926 9.046543 4.525887
v 3.035458 8.571840 8.280063
v -2.676188 8.571840 6.642074
v -2.676188 8.571840 6.322617
v 9.528105 8.571840 2.445213
v 9.528105 8.141459 4.525887
v -0.377688 8.571840 5.882164
v -0.377688 7.864674 6.642074
v 7.800624 7.805867 2.642326
v 3.035457 8.261497 5.882164
v -2.676188 8.571840 4.576313
v -2.369721 8.571840 4.576313
v -2.369721 8.140117 8.257463
v -2.676188 8.571840 8.257463
v -2.676188 8.571840 7.946804
v 7.471282 7.805867 2.633308
v 7.471815 7.805867 4.212060
v 2.895345 8.261497 5.882164
v -0.377688 8.571840 8.257463
v -0.990622 8.140117 8.257463
v -0.377688 7.864674 7.946804
v -2.663252 8.571840 1.096129
v -2.663252 8.571840 0.127661
v 2.895345 8.261801 4.576313
v 3.035457 8.261497 4.576313
v -2.663252 8.571840 2.474125
v -0.990621 8.571840 4.576313
v -0.377688 8.261801 4.576313
v -0.377688 8.261801 4.374551
v 2.895345 8.261801 4.374551
v -0.377688 8.571840 0.127661
v 2.895345 8.571840 0.127661
v -0.241468 7.864674 6.642074
v -0.241468 7.864674 7.946804
v 2.872149 8.571840 6.642074
v 2.872149 8.571840 7.946804
v 7.471979 8.571840 0.127661
v 7.471979 8.064837 1.096129
v 7.799926 8.064837 1.096129
v -0.241468 8.571840 6.077076
v 2.872149 8.571840 6.077076
v 9.528105 8.571840 1.096129
v -2.663252 8.571840 4.374551
v -0.990622 8.140117 8.425851
v -2.369721 8.140117 8.425851
v 2.872149 8.571840 8.281372
v -0.241468 8.571840 8.281372
v 8.209858 8.141459 0.241442
v 9.528105 8.141459 0.241442
v 8.001758 8.325921 5.548549
v 7.800090 7.805867 4.195132
v 7.471979 5.468402 4.374551
v 7.471979 5.468402 2.474125
v 7.799926 5.468402 2.445213
v 8.209858 6.856969 4.525887
v 7.471979 8.064837 2.474125
v 7.799926 8.064837 2.445213
v 7.471979 8.571840 4.374551
v 8.209858 8.141459 4.525887
v 9.528105 5.468402 2.445213
v 9.528105 5.468402 1.096129
v 9.528105 5.468402 0.241442
v 7.799926 5.468402 0.241442
v 7.799926 5.468402 4.525887
v 9.528105 5.468402 4.525887
v 7.799926 8.571840 0.241442
v 7.799926 8.571840 4.525887
v 9.528105 8.141459 1.096129
v 9.528105 8.571840 0.241442
v 9.528105 8.571840 4.525887
v 9.528105 8.141459 2.445213
v 8.001758 6.403092 7.395048
v 8.001758 6.403092 6.337471
v 8.001758 8.325921 7.395048
v 8.001758 8.325921 6.337471
v 8.001758 5.468402 6.322617
v 8.001758 5.468402 4.576313
v 8.001758 5.468402 8.280063
v 8.001758 8.571840 8.280063
v 8.001758 8.571840 4.576313
v 8.001758 8.571840 6.322617
v 8.209803 8.571840 4.525887
v 3.035457 8.577045 5.883117
vn -0.0000 1.0000 -0.0000
vn -0.0000 -0.0000 -1.0000
vn 1.0000 -0.0000 -0.0000
vn -1.0000 -0.0000 -0.0000
vn 1.0000 0.0003 0.0002
vn 1.0000 0.0002 -0.0005
vn -0.0000 -0.0000 1.0000
vn -1.0000 0.0002 -0.0005
vn -1.0000 0.0003 0.0002
vn -0.0000 -1.0000 -0.0000
vn -0.0878 -0.0000 -0.9961
vn -0.0266 -0.0000 -0.9996
vn -0.0011 -1.0000 -0.0001
vn -1.0000 -0.0001 0.0018
vn -1.0000 -0.0002 -0.0028
vn -1.0000 -0.0005 -0.0003
vn -1.0000 -0.0004 0.0002
vn 1.0000 -0.0002 -0.0023
vn 1.0000 -0.0001 0.0009
vn 1.0000 -0.0004 0.0002
vn 1.0000 -0.0004 -0.0003
vn -1.0000 0.0004 -0.0024
vn 1.0000 0.0004 -0.0019
vn -1.0000 0.0004 0.0017
vn 1.0000 0.0004 0.0008
vn -0.0274 -0.0000 0.9996
vt 0.150834 0.236944
vt 0.198984 0.236944
vt 0.198984 0.261348
vt 0.150834 0.261348
vt 0.198984 0.363844
vt 0.150834 0.363844
vt 0.348712 0.471118
vt 0.348712 0.398766
vt 0.356266 0.398766
vt 0.356266 0.471118
vt 0.246742 0.629633
vt 0.246742 0.392217
vt 0.813315 0.392217
vt 0.813315 0.629633
vt 0.813315 0.732444
vt 0.246742 0.732444
vt 0.246742 0.331336
vt 0.813315 0.331336
vt 0.198984 0.423540
vt 0.150834 0.388939
vt 0.198984 0.526124
vt 0.150834 0.526124
vt 0.456104 0.423540
vt 0.456104 0.526124
vt 0.467111 0.423540
vt 0.467111 0.526124
vt 0.456104 0.541974
vt 0.198984 0.541974
vt 0.198984 0.799517
vt 0.456104 0.799517
vt 0.456104 0.875597
vt 0.198984 0.875597
vt 0.456104 0.691265
vt 0.815630 0.541974
vt 0.815630 0.691265
vt 0.019437 0.875597
vt 0.019437 0.799517
vt 0.857248 0.388939
vt 0.857248 0.526124
vt 0.467111 0.235168
vt 0.857248 0.235168
vt 0.198984 0.691265
vt 0.019437 0.691265
vt 0.019437 0.541974
vt 0.815630 0.799517
vt 0.815630 0.875597
vt 0.784981 0.797232
vt 0.784981 0.679770
vt 0.812936 0.682235
vt 0.812936 0.797232
vt 0.841393 0.799517
vt 0.841393 0.693537
vt 0.977153 0.693537
vt 0.977153 0.799517
vt 0.977153 0.866658
vt 0.841393 0.866658
vt 0.841393 0.530085
vt 0.977153 0.530085
vt 0.018421 0.388939
vt 0.042496 0.388939
vt 0.042496 0.526124
vt 0.018421 0.526124
vt 0.018421 0.363844
vt 0.042496 0.363844
vt 0.018421 0.261348
vt 0.042496 0.261348
vt 0.018421 0.236944
vt 0.042496 0.236944
vt 0.314722 0.381538
vt 0.238246 0.381538
vt 0.238246 0.372201
vt 0.314722 0.372201
vt 0.307597 0.686434
vt 0.753480 0.686434
vt 0.753480 0.729054
vt 0.307597 0.729054
vt 0.742689 0.627776
vt 0.717123 0.627776
vt 0.717123 0.665765
vt 0.742689 0.665765
vt 0.406827 0.627776
vt 0.573337 0.627776
vt 0.573337 0.665765
vt 0.406827 0.665765
vt 0.873772 0.627776
vt 0.873772 0.665765
vt 0.681875 0.627776
vt 0.681875 0.665765
vt 0.360798 0.699439
vt 0.720522 0.652882
vt 0.720379 0.700219
vt 0.999340 0.566045
vt 0.974632 0.566045
vt 0.974632 0.604316
vt 0.999340 0.604316
vt 0.577372 0.627776
vt 0.577372 0.665765
vt 0.871963 0.627776
vt 0.847102 0.627776
vt 0.847102 0.665765
vt 0.871963 0.665765
vt 0.409140 0.627776
vt 0.561226 0.627776
vt 0.561226 0.665765
vt 0.409140 0.665765
vt 0.550152 0.566045
vt 0.814030 0.566045
vt 0.814030 0.604316
vt 0.550152 0.604316
vt 0.863446 0.566045
vt 0.863446 0.604316
vt 0.298864 0.627776
vt 0.221360 0.627776
vt 0.221360 0.665765
vt 0.298864 0.665765
vt 0.682065 0.665765
vt 0.681952 0.643046
vt 0.550152 0.604316
vt 0.814030 0.604316
vt 0.475845 0.717677
vt 0.247965 0.717677
vt 0.247965 0.800587
vt 0.475845 0.800587
vt 0.181174 0.566045
vt 0.181174 0.604316
vt 0.784006 0.702247
vt 0.784006 0.778662
vt 0.802192 0.778662
vt 0.802192 0.703850
vt 0.181174 0.604316
vt -0.248679 0.671538
vt 0.298035 0.671538
vt 0.298035 0.754891
vt -0.248679 0.754891
vt 0.598710 0.593352
vt 0.683469 0.699439
vt 0.683469 0.770652
vt 0.598710 0.770652
vt 0.015405 0.566045
vt 0.121689 0.566045
vt 0.154734 0.566045
vt 0.154734 0.604316
vt 0.015405 0.604316
vt 0.998297 0.566045
vt 0.998297 0.604316
vt 0.574525 0.717677
vt 0.574525 0.800587
vt 0.998297 0.604316
vt 0.298035 0.671538
vt -0.248679 0.671538
vt -0.248679 0.754891
vt 0.298035 0.754891
vt 0.015405 0.604316
vt 0.154734 0.604316
vt 0.189531 0.717677
vt 0.189531 0.800587
vt 0.230466 0.627776
vt 0.230466 0.665765
vt 0.538855 0.566045
vt 0.138462 0.566045
vt 0.138462 0.604316
vt 0.538855 0.604316
vt 0.352789 0.699439
vt 0.402980 0.593352
vt 0.402980 0.770652
vt 0.352789 0.770652
vt 0.656291 0.498392
vt 0.603634 0.498392
vt 0.603634 0.577530
vt 0.656291 0.577530
vt 0.352789 0.233873
vt 0.402980 0.233873
vt 0.538855 0.349174
vt 0.138462 0.349174
vt 0.298864 0.412506
vt 0.230466 0.412506
vt 0.247965 0.247854
vt 0.189531 0.247854
vt 0.121685 0.427789
vt 0.015405 0.427789
vt 0.015405 0.531347
vt 0.121685 0.531347
vt 0.556282 0.426507
vt 0.576299 0.426507
vt 0.576299 0.746278
vt 0.556282 0.746278
vt 0.298035 0.199210
vt -0.248679 0.199210
vt 0.998297 0.349174
vt 0.814030 0.349174
vt 0.574525 0.247854
vt 0.475845 0.247854
vt 0.619254 0.476737
vt 0.538036 0.476737
vt 0.538036 0.555875
vt 0.619254 0.555875
vt 0.598710 0.233873
vt 0.683469 0.233873
vt 0.561226 0.412506
vt 0.409140 0.412506
vt 0.520516 0.498392
vt 0.520516 0.577530
vt -0.248679 0.199210
vt 0.298035 0.199210
vt 0.181174 0.349174
vt 0.550152 0.349174
vt 0.154734 0.349174
vt 0.221360 0.412506
vt 0.803048 0.349174
vt 0.803048 0.566045
vt 1.000000 1.000000
vt 0.974632 0.349174
vt 0.863446 0.349174
vt 0.847102 0.412506
vt 0.742689 0.412506
vt 0.871963 0.412506
vt 0.181187 0.504291
vt 0.154721 0.504291
vt 0.154679 0.428859
vt 0.181229 0.428859
vt 0.717123 0.412506
vt 0.577372 0.412506
vt 0.999340 0.349174
vt 0.360798 0.233873
vt 0.720522 0.233873
vt 0.000000 0.000000
vt 0.681875 0.412506
vt 0.392325 0.498392
vt 0.392325 0.577530
vt 1.198733 0.199210
vt 0.326710 0.199210
vt 0.326710 0.671538
vt 1.198733 0.671538
vt 0.467111 0.423354
vt 0.454282 0.363844
vt 0.454282 0.261348
vt 0.454282 0.235065
vt 0.209685 0.235065
vt 0.209685 0.261348
vt 0.209685 0.363844
vt 0.209685 0.408228
vt 0.454282 0.408228
vt 0.547567 0.491603
vt 0.421879 0.491603
vt 0.422601 0.491603
vt 0.547523 0.491603
vt 0.573337 0.412506
vt 0.406827 0.412506
vt 0.421879 0.566478
vt 0.422601 0.566478
vt 0.548222 0.566478
vt 0.546867 0.566478
vt 0.181230 0.428859
vt 0.154678 0.428859
vt 0.154678 0.504291
vt 0.181230 0.504291
vt 0.406827 0.490540
vt 0.298864 0.490540
vt 0.015405 0.349174
vt 0.230466 0.490540
vt 0.573337 0.490540
vt 0.603634 0.604046
vt 0.656291 0.604046
vt 0.538033 0.582391
vt 0.619254 0.582391
vt 0.520516 0.604046
vt 0.392325 0.604046
vt 0.334085 0.473744
vt 0.284249 0.473744
vt 0.225040 0.473744
vt 0.225040 0.590334
vt 0.284249 0.590334
vt 0.334085 0.590334
vt 0.713718 0.458525
vt 0.648986 0.458525
vt 0.790626 0.458525
vt 0.873772 0.412506
vt 0.790626 0.609965
vt 0.648986 0.609965
vt 0.713718 0.609965
s 1
usemtl PH1
f 188/73/2 111/74/2 93/75/2 94/76/2
f 112/77/3 113/78/3 75/79/3 65/80/3
f 114/81/4 179/82/4 105/83/4 101/84/4
f 190/78/4 188/85/4 94/86/4 91/79/4
f 116/87/4 117/77/4 66/80/4 76/88/4
f 176/82/5 166/81/6 99/84/3 110/83/3
f 120/92/7 121/93/7 109/94/7 77/95/7
f 122/93/2 123/92/2 61/95/2 106/94/2
f 113/78/3 120/96/3 77/97/3 75/79/3
f 123/98/3 124/99/3 63/100/3 61/101/3
f 165/102/8 167/103/9 87/104/4 95/105/4
f 127/106/2 116/107/2 76/108/2 79/109/2
f 128/107/2 129/110/2 107/111/2 62/108/2
f 130/99/4 128/98/4 62/101/4 64/100/4
f 131/112/3 132/113/3 90/114/3 97/115/3
f 133/96/4 127/87/4 79/88/4 80/97/4
f 135/102/3 131/112/3 97/115/3 98/105/3
f 134/96/3 82/97/3 81/116/3 192/117/3 119/87/3
f 136/110/7 137/107/7 78/108/7 108/111/7
f 124/99/3 112/77/3 65/80/3 63/100/3
f 121/93/7 136/110/7 108/111/7 109/94/7
f 140/107/7 141/106/7 86/118/7 85/119/7
f 117/77/4 130/99/4 64/100/4 66/80/4
f 146/113/4 147/112/4 96/115/4 88/114/4
f 100/115/3 99/84/3 166/81/6 148/112/3
f 141/106/7 146/124/7 88/125/7 86/118/7
f 167/124/2 139/106/2 84/109/2 87/130/2
f 151/112/4 114/81/4 101/84/4 102/115/4
f 152/103/3 135/102/3 98/105/3 89/104/3
f 179/139/2 191/140/2 176/141/2 110/142/2 105/143/2
f 138/107/2 152/144/2 89/145/2 83/108/2
f 132/144/7 140/107/7 85/119/7 90/148/7
f 107/111/2 129/110/2 122/93/2 106/94/2
f 175/141/7 178/139/7 104/153/7 103/154/7
f 189/96/4 190/78/4 91/79/4 92/97/4
f 148/112/3 175/157/3 103/158/3 100/115/3
f 134/159/7 189/160/7 92/161/7 82/162/7
f 178/157/4 151/112/4 102/115/4 104/158/4
f 22/173/7 186/174/7 189/160/7 134/159/7
f 42/175/3 172/176/3 175/157/3 148/112/3
f 45/179/7 46/180/7 158/181/7 157/182/7
f 30/189/7 25/190/7 140/107/7 132/144/7
f 23/190/2 29/189/2 152/144/2 138/107/2
f 29/199/3 40/200/3 135/102/3 152/103/3
f 161/205/2 24/206/2 139/106/2 167/124/2
f 26/206/7 28/205/7 146/124/7 141/106/7
f 28/208/4 38/175/4 147/112/4 146/113/4
f 25/190/7 26/206/7 141/106/7 140/107/7
f 24/211/4 20/211/4 133/211/4 139/211/4
f 18/211/3 23/211/3 138/211/3 137/211/3
f 58/212/7 57/213/7 136/110/7 121/93/7
f 3/214/3 5/215/3 112/77/3 124/99/3
f 57/213/7 18/190/7 137/107/7 136/110/7
f 21/173/2 19/206/2 127/106/2 119/159/2
f 40/200/3 39/175/3 131/112/3 135/102/3
f 20/206/7 22/173/7 134/159/7 133/106/7
f 39/175/3 30/208/3 132/113/3 131/112/3
f 4/214/4 2/216/4 128/98/4 130/99/4
f 2/190/2 50/213/2 129/110/2 128/107/2
f 19/206/2 16/190/2 116/107/2 127/106/2
f 126/217/12 160/218/12 47/219/12 27/220/12
f 1/216/3 3/214/3 124/99/3 123/98/3
f 15/221/3 17/222/3 120/96/3 113/78/3
f 49/212/2 1/223/2 123/92/2 122/93/2
f 17/223/7 58/212/7 121/93/7 120/92/7
f 125/226/10 118/226/10 160/226/10 126/226/10
f 16/227/4 6/215/4 117/77/4 116/87/4
f 5/215/3 15/221/3 113/78/3 112/77/3
f 133/211/10 137/211/10 138/211/10 139/211/10
f 138/107/2 83/108/2 84/109/2 139/106/2
f 137/107/7 133/106/7 80/109/7 78/108/7
f 134/211/13 119/211/13 127/211/13 133/211/13
f 96/115/4 147/112/4 165/102/8 95/105/4
f 27/243/14 37/244/15 162/200/16 161/199/17
f 41/245/18 47/246/19 173/247/20 163/248/21
f 37/244/15 125/249/22 165/102/8 162/200/16
f 118/250/23 41/245/18 163/248/21 166/81/6
f 126/251/24 27/243/14 161/199/17 167/103/9
f 47/246/19 160/252/25 176/82/5 173/247/20
f 125/249/22 126/251/24 167/103/9 165/102/8
f 160/252/25 118/250/23 166/81/6 176/82/5
f 27/226/1 47/226/1 41/226/1 37/226/1
f 37/253/26 41/254/26 118/255/26 125/256/26
f 43/257/4 44/258/4 170/175/4 169/248/4
f 46/180/7 45/179/7 172/207/7 171/259/7
f 44/258/4 46/260/4 171/176/4 170/175/4
f 164/179/2 48/180/2 174/259/2 173/207/2
f 48/261/4 43/257/4 169/248/4 174/247/4
f 45/179/7 157/182/7 175/141/7 172/207/7
f 168/182/2 164/179/2 173/207/2 176/141/2
f 157/182/7 158/181/7 178/139/7 175/141/7
f 182/274/4 31/275/4 186/222/4 185/221/4
f 181/276/4 182/274/4 185/221/4 187/277/4
f 183/278/4 181/276/4 187/277/4 188/85/4
f 31/275/4 159/279/4 189/96/4 186/222/4
f 159/279/4 184/280/4 190/78/4 189/96/4
f 184/280/4 183/278/4 188/85/4 190/78/4
f 191/140/2 168/182/2 176/141/2
f 192/117/3 81/116/3 93/86/3 111/85/3
usemtl PH4
f 6/7/1 4/8/1 7/9/1 8/10/1
f 38/47/1 162/48/1 163/49/1 42/50/1
f 50/69/1 49/70/1 59/71/1 60/72/1
f 130/8/10 117/7/10 142/10/10 143/9/10
f 165/126/10 147/127/10 148/128/10 166/129/10
f 153/72/10 154/71/10 122/70/10 129/69/10
f 59/183/3 49/184/3 122/185/3 154/186/3
f 50/184/4 60/183/4 153/186/4 129/185/4
f 163/207/11 162/205/11 165/124/11 166/141/11
f 38/205/7 42/207/7 148/141/7 147/124/7
f 7/209/2 4/190/2 130/107/2 143/210/2
f 6/190/7 8/209/7 142/210/7 117/107/7
usemtl PH2
f 8/11/1 7/12/1 9/13/1 10/14/1
f 8/11/1 10/14/1 12/15/1 11/16/1
f 9/13/1 7/12/1 13/17/1 14/18/1
f 111/89/3 119/90/3 192/91/3
f 144/120/4 145/121/4 69/122/4 70/123/4
f 149/131/7 150/132/7 72/133/7 71/134/7
f 142/135/3 149/136/3 71/137/3 68/138/3
f 150/146/4 144/120/4 70/123/4 72/147/4
f 155/149/2 156/150/2 73/151/2 74/152/2
f 145/121/4 155/155/4 74/156/4 69/122/4
f 156/163/3 143/164/3 67/165/3 73/166/3
f 13/171/3 7/172/3 143/164/3 156/163/3
f 9/177/4 14/178/4 155/155/4 145/121/4
f 14/187/2 13/188/2 156/150/2 155/149/2
f 12/191/4 10/192/4 144/120/4 150/146/4
f 8/197/3 11/198/3 149/136/3 142/135/3
f 11/203/7 12/204/7 150/132/7 149/131/7
f 10/192/4 9/177/4 145/121/4 144/120/4
f 32/224/3 21/225/3 119/90/3 111/89/3
f 187/230/2 32/231/2 111/232/2 188/233/2
f 142/135/3 68/138/3 67/165/3 143/164/3
usemtl PH3
f 50/1/1 2/2/1 4/3/1 51/4/1
f 51/4/1 4/3/1 6/5/1 53/6/1
f 53/6/1 6/5/1 16/19/1 55/20/1
f 55/20/1 16/19/1 18/21/1 57/22/1
f 18/21/1 16/19/1 19/23/1 20/24/1
f 20/24/1 19/23/1 21/25/1 22/26/1
f 18/21/1 20/24/1 24/27/1 23/28/1
f 33/29/1 36/30/1 26/31/1 25/32/1
f 35/33/1 24/27/1 161/34/1 162/35/1
f 33/29/1 25/32/1 30/36/1 39/37/1
f 22/26/1 21/25/1 185/38/1 186/39/1
f 185/38/1 21/25/1 32/40/1 187/41/1
f 23/28/1 34/42/1 40/43/1 29/44/1
f 34/42/1 33/29/1 39/37/1 40/43/1
f 26/31/1 36/30/1 38/45/1 28/46/1
f 36/30/1 35/33/1 162/35/1 38/45/1
f 23/28/1 24/27/1 35/33/1 34/42/1
f 34/42/1 35/33/1 36/30/1 33/29/1
f 42/51/1 163/52/1 169/53/1 170/54/1
f 42/51/1 170/54/1 171/55/1 172/56/1
f 169/53/1 163/52/1 173/57/1 174/58/1
f 15/59/1 56/60/1 58/61/1 17/62/1
f 56/60/1 55/20/1 57/22/1 58/61/1
f 5/63/1 54/64/1 56/60/1 15/59/1
f 54/64/1 53/6/1 55/20/1 56/60/1
f 3/65/1 52/66/1 54/64/1 5/63/1
f 52/66/1 51/4/1 53/6/1 54/64/1
f 1/67/1 49/68/1 52/66/1 3/65/1
f 49/68/1 50/1/1 51/4/1 52/66/1
usemtl PH5
f 46/167/4 44/168/4 177/169/4 158/170/4
f 48/193/2 164/194/2 168/195/2 115/196/2
f 44/168/4 43/201/4 180/202/4 177/169/4
f 43/201/4 48/228/4 115/229/4 180/202/4
f 158/170/4 177/169/4 151/262/4 178/263/4
f 115/196/2 168/195/2 191/264/2 179/265/2
f 177/169/4 180/202/4 114/266/4 151/262/4
f 180/202/4 115/229/4 179/267/4 114/266/4
f 31/268/4 182/269/4 181/270/4 183/271/4 184/272/4 159/273/4
usemtl PH6
f 91/38/10 94/41/10 93/40/10 81/234/10 82/26/10 92/39/10
f 70/235/10 69/236/10 74/237/10 73/238/10 67/239/10 68/240/10 71/241/10 72/242/10
f 100/51/10 103/56/10 104/55/10 102/54/10 101/53/10 105/58/10 110/57/10 99/52/10
f 86/31/10 88/46/10 96/45/10 95/35/10 87/34/10 84/27/10 83/28/10 89/44/10 98/43/10 97/37/10 90/36/10 85/32/10
f 63/65/10 65/63/10 75/59/10 77/62/10 109/61/10 108/22/10 78/21/10 80/24/10 79/23/10 76/19/10 66/5/10 64/3/10 62/2/10 107/1/10 106/68/10 61/67/10
