# Blender 4.2.3 LTS
# www.blender.org
mtllib Laptop.mtl
o Laptop
v -0.226800 0.000000 0.350000
v -0.211017 0.049000 0.309017
v -0.226800 0.000000 -0.350000
v -0.211017 0.049000 -0.309017
v 0.226800 0.000000 0.350000
v 0.211017 0.049000 0.309017
v 0.226800 0.000000 -0.350000
v 0.211017 0.049000 -0.309017
v 0.410839 0.484058 0.324329
v 0.447245 0.502214 0.350000
v 0.410839 0.484058 -0.324329
v 0.447245 0.502214 -0.350000
v 0.258649 0.065919 0.324329
v 0.274867 0.028609 0.350000
v 0.258649 0.065919 -0.324329
v 0.274867 0.028609 -0.350000
v 0.420933 0.511791 -0.350000
v 0.420933 0.511791 0.350000
v 0.248555 0.038186 -0.350000
v 0.248555 0.038186 0.350000
v -0.252000 0.049000 0.350000
v -0.252000 0.049000 -0.350000
v 0.252000 0.049000 -0.350000
v 0.252000 0.049000 0.350000
vn -0.8893 -0.4573 -0.0000
vn -0.0000 -0.0000 -1.0000
vn 0.8893 -0.4573 -0.0000
vn -0.0000 -0.0000 1.0000
vn -0.0000 -1.0000 -0.0000
vn -0.0000 1.0000 -0.0000
vn 0.3420 0.9397 -0.0000
vn -0.3420 -0.9397 -0.0000
vn -0.9397 0.3420 -0.0000
vn 0.9397 -0.3420 -0.0000
vt 0.719405 -0.000000
vt 0.746138 0.000000
vt 0.746138 0.500000
vt 0.719405 0.500000
vt 0.754405 0.842000
vt 0.719405 0.860000
vt 0.719405 0.500000
vt 0.754405 0.518000
vt 0.678364 0.500000
vt 0.717643 0.500000
vt 0.717643 1.000000
vt 0.678364 1.000000
vt 0.789405 0.342000
vt 0.754405 0.360000
vt 0.754405 -0.000000
vt 0.789405 0.018000
vt 0.359286 0.500000
vt 0.678364 0.500000
vt 0.678364 1.000000
vt 0.359286 1.000000
vt 0.389225 0.029274
vt 0.690180 0.029273
vt 0.690180 0.470726
vt 0.389225 0.470726
vt 0.808561 0.500000
vt 0.789405 0.500000
vt 0.789405 -0.000000
vt 0.808561 0.000000
vt 0.789405 0.500000
vt 0.809405 0.500000
vt 0.809405 0.860000
vt 0.789405 0.860000
vt 0.774101 0.360000
vt 0.774101 0.860000
vt 0.754405 0.860000
vt 0.829405 0.360000
vt 0.809405 0.360000
vt 0.809405 -0.000000
vt 0.829405 -0.000000
vt 0.338919 0.481664
vt 0.021081 0.481664
vt 0.021081 0.018336
vt 0.338919 0.018336
vt 0.000000 0.500000
vt 0.359286 0.500000
vt 0.359286 1.000000
vt -0.000000 1.000000
vt 0.360000 -0.000000
vt 0.360000 0.500000
vt 0.000000 0.500000
vt -0.000000 0.000000
vt 0.719405 0.000000
vt 0.360000 -0.000000
vt 0.360000 0.500000
s 0
usemtl PH1
f 1/1/1 21/2/1 22/3/1 3/4/1
f 3/5/2 22/6/2 23/7/2 7/8/2
f 7/9/3 23/10/3 24/11/3 5/12/3
f 5/13/4 24/14/4 21/15/4 1/16/4
f 3/17/5 7/18/5 5/19/5 1/20/5
f 18/25/7 10/26/7 12/27/7 17/28/7
f 17/29/2 12/30/2 16/31/2 19/32/2
f 19/14/8 16/33/8 14/34/8 20/35/8
f 20/36/4 14/37/4 10/38/4 18/39/4
f 16/44/10 12/45/10 10/46/10 14/47/10
f 11/40/9 9/43/9 18/48/9 17/49/9
f 15/41/9 11/40/9 17/49/9 19/50/9
f 13/42/9 15/41/9 19/50/9 20/51/9
f 9/43/9 13/42/9 20/51/9 18/48/9
f 2/23/6 4/22/6 22/52/6 21/4/6
f 4/22/6 8/21/6 23/53/6 22/52/6
f 8/21/6 6/24/6 24/54/6 23/53/6
f 6/24/6 2/23/6 21/4/6 24/54/6
usemtl PH2
f 11/40/9 15/41/9 13/42/9 9/43/9
usemtl PH3
f 8/21/6 4/22/6 2/23/6 6/24/6
