# Blender 4.2.3 LTS
# www.blender.org
mtllib RoadStr20.mtl
o RoadStr20
v -10.998698 0.300000 -7.800000
v 8.998698 0.300000 -7.800000
v -10.998698 0.000000 -4.000000
v 8.998698 0.000000 -4.000000
v -10.998698 0.000000 0.000000
v 8.998698 0.000000 0.000000
v 8.998698 0.300000 -4.300000
v -10.998698 0.300000 -4.300000
v -10.998698 0.300000 -4.000000
v 8.998698 0.300000 -4.000000
v -10.998698 0.300000 -8.000000
v 8.998698 0.300000 -8.000000
v -10.998698 0.200000 -8.000000
v 8.998698 0.200000 -8.000000
v -10.998698 0.200000 -11.000000
v 8.998698 0.200000 -11.000000
v -10.998698 0.300000 7.800000
v 8.998698 0.300000 7.800000
v -10.998698 0.000000 4.000000
v 8.998698 0.000000 4.000000
v 8.998698 0.300000 4.300000
v -10.998698 0.300000 4.300000
v -10.998698 0.300000 4.000000
v 8.998698 0.300000 4.000000
v -10.998698 0.300000 8.000000
v 8.998698 0.300000 8.000000
v -10.998698 0.200000 8.000000
v 8.998698 0.200000 8.000000
v -10.998698 0.200000 11.000000
v 8.998698 0.200000 11.000000
vn -0.0000 1.0000 -0.0000
vn -0.0000 -0.0000 1.0000
vn -0.0000 -0.0000 -1.0000
vt 0.001447 0.719090
vt 0.998633 0.719090
vt 0.998633 0.893621
vt 0.001447 0.893621
vt 0.996377 0.691861
vt 0.000114 0.691861
vt 0.000114 0.492582
vt 0.996377 0.492582
vt 0.000114 0.695736
vt 0.996377 0.695736
vt 0.996377 0.710682
vt 0.000114 0.710682
vt 0.995925 0.676379
vt 0.995925 0.696133
vt 0.000383 0.696011
vt 0.000383 0.676257
vt 0.001128 0.664626
vt 0.993088 0.664626
vt 0.993088 0.679507
vt 0.001128 0.679507
vt 0.997492 0.571557
vt 0.007381 0.571557
vt 0.007381 0.551752
vt 0.997492 0.551752
vt 0.004485 0.695489
vt 1.000276 0.695489
vt 1.000276 0.844878
vt 0.004485 0.844878
s 0
usemtl PH1
f 8/1/1 7/2/1 2/3/1 1/4/1
f 22/1/1 17/4/1 18/3/1 21/2/1
usemtl PH2
f 9/9/1 10/10/1 7/11/1 8/12/1
f 4/13/2 10/14/2 9/15/2 3/16/2
f 1/17/1 2/18/1 12/19/1 11/20/1
f 11/21/3 12/22/3 14/23/3 13/24/3
f 23/9/1 22/12/1 21/11/1 24/10/1
f 20/13/3 19/16/3 23/15/3 24/14/3
f 17/17/1 25/20/1 26/19/1 18/18/1
f 25/21/2 27/24/2 28/23/2 26/22/2
usemtl PH3
f 4/5/1 3/6/1 5/7/1 6/8/1
f 13/25/1 14/26/1 16/27/1 15/28/1
f 20/5/1 6/8/1 5/7/1 19/6/1
f 27/25/1 29/28/1 30/27/1 28/26/1
