# Blender 4.2.3 LTS
# www.blender.org
mtllib wall2x2x0.5.mtl
o Wall2x2x0.5
v 0.500000 2.000000 -1.000000
v 0.500000 0.000000 -1.000000
v 0.500000 2.000000 1.000000
v 0.500000 0.000000 1.000000
v 0.000000 2.000000 -1.000000
v 0.000000 0.000000 -1.000000
v 0.000000 2.000000 1.000000
v 0.000000 0.000000 1.000000
vn -0.0000 1.0000 -0.0000
vn -0.0000 -0.0000 1.0000
vn -1.0000 -0.0000 -0.0000
vn -0.0000 -1.0000 -0.0000
vn 1.0000 -0.0000 -0.0000
vn -0.0000 -0.0000 -1.0000
vt 0.625000 0.500000
vt 0.500000 0.500000
vt 0.500000 0.000000
vt 0.625000 0.000000
vt 0.500000 1.000000
vt 0.625000 1.000000
vt 0.500000 0.500000
vt -0.000000 0.500000
vt 0.000000 -0.000000
vt 0.500000 -0.000000
vt 0.750000 0.500000
vt 0.750000 0.000000
vt 0.500000 1.000000
vt -0.000000 1.000000
vt 0.000000 0.500000
vt 0.500000 0.500000
vt 0.750000 1.000000
s 0
usemtl Mat1
f 1/1/1 5/2/1 7/3/1 3/4/1
f 4/5/2 3/2/2 7/1/2 8/6/2
f 8/7/3 7/8/3 5/9/3 6/10/3
f 6/11/4 2/1/4 4/4/4 8/12/4
f 2/13/5 1/14/5 3/15/5 4/16/5
f 6/6/6 5/1/6 1/11/6 2/17/6
